<?xml version="1.0" encoding="UTF-8"?>
<svg id="Layer_2" data-name="Layer 2" xmlns="http://www.w3.org/2000/svg" viewBox="0 0 58 58">
  <defs>
    <style>
      .cls-1 {
        fill: #bfff1b;
      }
    </style>
  </defs>
  <g id="Layer_1-2" data-name="Layer 1">
    <path class="cls-1" d="M29,29c-3.99,0-7.4-1.42-10.24-4.26s-4.26-6.25-4.26-10.24,1.42-7.4,4.26-10.24S25.01,0,29,0s7.4,1.42,10.24,4.26,4.26,6.25,4.26,10.24-1.42,7.4-4.26,10.24-6.25,4.26-10.24,4.26ZM0,58v-10.15c0-2.05.53-3.94,1.59-5.66,1.05-1.73,2.46-3.04,4.21-3.95,3.75-1.87,7.55-3.27,11.42-4.21,3.87-.94,7.79-1.4,11.78-1.4s7.91.46,11.78,1.4c3.87.94,7.67,2.34,11.42,4.21,1.75.91,3.16,2.22,4.21,3.95,1.06,1.72,1.59,3.61,1.59,5.66v10.15H0Z"/>
  </g>
</svg>