<?xml version="1.0" encoding="UTF-8"?>
<svg id="Layer_2" data-name="Layer 2" xmlns="http://www.w3.org/2000/svg" viewBox="0 0 748.94 92.96">
  <defs>
    <style>
      .cls-1 {
        fill: #bfff1b;
        stroke: #bfff1b;
        stroke-width: .64px;
      }

      .cls-2 {
        opacity: .1;
      }
    </style>
  </defs>
  <g id="Layer_1-2" data-name="Layer 1">
    <g class="cls-2">
      <path class="cls-1" d="M182.04,42.15h-37.55S103.59.32,103.59.32h37.55l40.89,41.83Z"/>
      <path class="cls-1" d="M238.45,46.48l-46.16,46.16h-37.55s44.9-45.94,44.9-45.94l.22-.22-.22-.22L154.73.32h37.56s46.16,46.16,46.16,46.16Z"/>
      <path class="cls-1" d="M140.32,92.64h-37.56s39.88-40.79,39.88-40.79h37.55l-39.87,40.79Z"/>
      <path class="cls-1" d="M386.06,42.15h-37.55S307.61.32,307.61.32h37.56l40.89,41.83Z"/>
      <path class="cls-1" d="M442.47,46.48l-46.16,46.16h-37.55s44.9-45.94,44.9-45.94l.21-.22-.21-.22L358.75.32h37.56s46.16,46.16,46.16,46.16Z"/>
      <path class="cls-1" d="M344.34,92.64h-37.56s39.88-40.79,39.88-40.79h37.55l-39.87,40.79Z"/>
      <path class="cls-1" d="M590.07,42.15h-37.55S511.63.32,511.63.32h37.55l40.89,41.83Z"/>
      <path class="cls-1" d="M646.48,46.48l-46.16,46.16h-37.55s44.9-45.94,44.9-45.94l.22-.22-.22-.22L562.77.32h37.55s46.16,46.16,46.16,46.16Z"/>
      <path class="cls-1" d="M548.35,92.64h-37.55s39.88-40.79,39.88-40.79h37.54l-39.87,40.79Z"/>
      <path class="cls-1" d="M80.03,42.15h-37.55S1.59.32,1.59.32h37.56l40.89,41.83Z"/>
      <path class="cls-1" d="M136.44,46.48l-46.16,46.16h-37.55s44.9-45.94,44.9-45.94l.22-.22-.22-.22L52.72.32h37.56s46.16,46.16,46.16,46.16Z"/>
      <path class="cls-1" d="M38.31,92.64H.76s39.88-40.79,39.88-40.79h37.55l-39.87,40.79Z"/>
      <path class="cls-1" d="M284.05,42.14h-37.55S205.6.32,205.6.32h37.55l40.89,41.83Z"/>
      <path class="cls-1" d="M340.46,46.48l-46.16,46.16h-37.55l44.9-45.94.22-.22-.22-.22L256.74.32h37.55l46.16,46.16Z"/>
      <path class="cls-1" d="M242.33,92.64h-37.56l39.88-40.79h37.54l-39.87,40.79Z"/>
      <path class="cls-1" d="M488.07,42.14h-37.56S409.62.32,409.62.32h37.56l40.89,41.83Z"/>
      <path class="cls-1" d="M544.48,46.48l-46.17,46.16h-37.55l44.9-45.94.22-.22-.22-.22L460.76.32h37.56l46.16,46.16Z"/>
      <path class="cls-1" d="M446.35,92.64h-37.56l39.88-40.79h37.55l-39.87,40.79Z"/>
      <path class="cls-1" d="M692.08,42.15h-37.55S613.64.32,613.64.32h37.55l40.89,41.83Z"/>
      <path class="cls-1" d="M748.49,46.48l-46.16,46.16h-37.55s44.9-45.94,44.9-45.94l.22-.22-.22-.22L664.77.32h37.56s46.16,46.16,46.16,46.16Z"/>
      <path class="cls-1" d="M650.36,92.64h-37.55s39.88-40.79,39.88-40.79h37.54l-39.87,40.79Z"/>
    </g>
  </g>
</svg>