<?xml version="1.0" encoding="UTF-8"?>
<svg id="Layer_2" data-name="Layer 2" xmlns="http://www.w3.org/2000/svg" viewBox="0 0 64.47 57.75">
  <defs>
    <style>
      .cls-1 {
        fill: #bfff1b;
      }
    </style>
  </defs>
  <g id="Layer_1-2" data-name="Layer 1">
    <path class="cls-1" d="M61.11,25.83v31.92H3.36v-31.92c-1.23-1.13-2.18-2.57-2.85-4.33-.67-1.77-.68-3.69-.04-5.78L5.36,0h53.74l4.9,15.72c.64,2.09.62,3.98-.04,5.7-.67,1.71-1.62,3.18-2.85,4.41ZM39.29,22.46c1.45,0,2.54-.5,3.29-1.49.75-.98,1.04-2.09.88-3.32l-1.76-11.23h-6.26v11.87c0,1.12.38,2.1,1.13,2.93.74.82,1.65,1.24,2.72,1.24ZM24.85,22.46c1.23,0,2.24-.42,3.01-1.24.78-.83,1.17-1.81,1.17-2.93V6.42h-6.26l-1.77,11.23c-.21,1.28.07,2.4.85,3.36.77.97,1.77,1.45,3,1.45ZM10.58,22.46c.96,0,1.8-.35,2.52-1.04.73-.7,1.17-1.58,1.33-2.65l1.76-12.35h-6.25l-3.21,10.74c-.32,1.07-.15,2.22.52,3.45s1.78,1.85,3.33,1.85ZM53.89,22.46c1.55,0,2.67-.62,3.37-1.85.69-1.23.85-2.38.48-3.45l-3.37-10.74h-6.09l1.76,12.35c.16,1.07.6,1.95,1.32,2.65.73.69,1.57,1.04,2.53,1.04Z"/>
  </g>
</svg>