<?xml version="1.0" encoding="UTF-8"?>
<svg id="Layer_2" data-name="Layer 2" xmlns="http://www.w3.org/2000/svg" viewBox="0 0 742.83 92.96">
  <defs>
    <style>
      .cls-1 {
        fill: #bfff1b;
        stroke: #bfff1b;
        stroke-width: .64px;
      }
    </style>
  </defs>
  <g id="Layer_1-2" data-name="Layer 1">
    <g>
      <path class="cls-1" d="M84.47,46.48l-46.16,46.16H.76l44.9-45.94.22-.22-.22-.22L.76.32h37.56l46.16,46.16Z"/>
      <path class="cls-1" d="M135.08,46.48l-46.16,46.16h-37.55l44.9-45.94.22-.22-.22-.22L51.36.32h37.56l46.16,46.16Z"/>
      <path class="cls-1" d="M185.69,46.48l-46.16,46.16h-37.55s44.9-45.94,44.9-45.94l.22-.22-.22-.22L101.97.32h37.56s46.16,46.16,46.16,46.16Z"/>
      <path class="cls-1" d="M236.3,46.48l-46.16,46.16h-37.55l44.9-45.94.22-.22-.22-.22L152.58.32h37.56l46.16,46.16Z"/>
      <path class="cls-1" d="M286.9,46.48l-46.16,46.16h-37.55l44.9-45.94.22-.22-.22-.22L203.19.32h37.56l46.16,46.16Z"/>
      <path class="cls-1" d="M337.51,46.48l-46.16,46.16h-37.55l44.9-45.94.22-.22-.22-.22L253.8.32h37.55l46.16,46.16Z"/>
      <path class="cls-1" d="M388.12,46.48l-46.16,46.16h-37.55l44.9-45.94.22-.22-.22-.22L304.4.32h37.56l46.16,46.16Z"/>
      <path class="cls-1" d="M438.73,46.48l-46.16,46.16h-37.55l44.9-45.94.21-.22-.21-.22L355.01.32h37.56l46.16,46.16Z"/>
      <path class="cls-1" d="M489.34,46.48l-46.17,46.16h-37.55l44.9-45.94.22-.22-.22-.22L405.62.32h37.56l46.16,46.16Z"/>
      <path class="cls-1" d="M539.94,46.48l-46.16,46.16h-37.55l44.9-45.94.22-.22-.22-.22L456.23.32h37.55l46.16,46.16Z"/>
      <path class="cls-1" d="M590.55,46.48l-46.16,46.16h-37.55l44.9-45.94.22-.22-.22-.22L506.84.32h37.55l46.16,46.16Z"/>
      <path class="cls-1" d="M641.16,46.48l-46.16,46.16h-37.55s44.9-45.94,44.9-45.94l.22-.22-.22-.22L557.44.32h37.56s46.16,46.16,46.16,46.16Z"/>
      <path class="cls-1" d="M691.77,46.48l-46.16,46.16h-37.55l44.9-45.94.22-.22-.22-.22L608.05.32h37.56l46.16,46.16Z"/>
      <path class="cls-1" d="M742.38,46.48l-46.16,46.16h-37.55l44.9-45.94.21-.22-.21-.22L658.66.32h37.56l46.16,46.16Z"/>
    </g>
  </g>
</svg>