<?xml version="1.0" encoding="UTF-8"?>
<svg id="Layer_2" data-name="Layer 2" xmlns="http://www.w3.org/2000/svg" viewBox="0 0 664.05 117.56">
  <defs>
    <style>
      .cls-1, .cls-2 {
        isolation: isolate;
      }

      .cls-1, .cls-2, .cls-3 {
        fill: #bfff1b;
      }

      .cls-2 {
        opacity: .1;
      }
    </style>
  </defs>
  <g id="Layer_1-2" data-name="Layer 1">
    <g>
      <g>
        <path class="cls-3" d="M240.36,0h-48.62l57.46,58.78-57.45,58.78h48.61s58.78-58.78,58.78-58.78L240.36,0Z"/>
        <path class="cls-2" d="M176.44,0h-48.62l57.46,58.78-57.45,58.78h48.61s58.78-58.78,58.78-58.78L176.44,0Z"/>
        <path class="cls-3" d="M112.53,0h-48.62l57.45,58.78-57.45,58.78h48.61s58.78-58.78,58.78-58.78L112.53,0Z"/>
        <path class="cls-2" d="M48.62,0H0l57.45,58.78L0,117.56h48.61s58.78-58.78,58.78-58.78L48.62,0Z"/>
      </g>
      <g>
        <path class="cls-3" d="M605.27,0h-48.62l57.46,58.78-57.45,58.78h48.61s58.78-58.78,58.78-58.78L605.27,0Z"/>
        <path class="cls-1" d="M541.35,0h-48.62l57.46,58.78-57.45,58.78h48.61s58.78-58.78,58.78-58.78L541.35,0Z"/>
        <path class="cls-3" d="M477.44,0h-48.62l57.45,58.78-57.45,58.78h48.61s58.78-58.78,58.78-58.78L477.44,0Z"/>
        <path class="cls-1" d="M413.53,0h-48.62l57.45,58.78-57.45,58.78h48.61s58.78-58.78,58.78-58.78L413.53,0Z"/>
      </g>
    </g>
  </g>
</svg>