<?xml version="1.0" encoding="UTF-8"?>
<svg id="Layer_2" data-name="Layer 2" xmlns="http://www.w3.org/2000/svg" viewBox="0 0 34 62">
  <defs>
    <style>
      .cls-1 {
        fill: #bfff1b;
      }
    </style>
  </defs>
  <g id="Layer_1-2" data-name="Layer 1">
    <path class="cls-1" d="M17,25.36c2.36,0,4.37-.82,6.02-2.46,1.65-1.65,2.48-3.64,2.48-5.99s-.83-4.35-2.48-5.99-3.66-2.47-6.02-2.47-4.37.83-6.02,2.47-2.48,3.64-2.48,5.99.83,4.34,2.48,5.99c1.65,1.64,3.66,2.46,6.02,2.46ZM17.14,62l-11.47-11.27,5.66-5.64-5.66-5.64,5.66-5.63v-.99c-3.4-1.17-6.14-3.22-8.21-6.13-2.08-2.91-3.12-6.17-3.12-9.79,0-4.7,1.65-8.69,4.96-11.98C8.26,1.64,12.28,0,17,0s8.74,1.64,12.04,4.93c3.31,3.29,4.96,7.28,4.96,11.98,0,3.8-1.09,7.13-3.26,9.97s-4.86,4.82-8.07,5.95v23.53l-5.53,5.64Z"/>
  </g>
</svg>