<?xml version="1.0" encoding="UTF-8"?>
<svg id="Layer_2" data-name="Layer 2" xmlns="http://www.w3.org/2000/svg" viewBox="0 0 45 62">
  <defs>
    <style>
      .cls-1 {
        fill: #bfff1b;
      }
    </style>
  </defs>
  <g id="Layer_1-2" data-name="Layer 1">
    <path class="cls-1" d="M3.09,42.41c-1.03-1.78-1.8-3.61-2.32-5.49-.51-1.88-.77-3.81-.77-5.78,0-6.29,2.18-11.65,6.54-16.06,4.36-4.42,9.68-6.63,15.96-6.63h.49l-4.5-4.5,3.94-3.95,11.25,11.27-11.25,11.28-3.94-3.95,4.5-4.51h-.49c-4.69,0-8.67,1.66-11.95,4.97-3.28,3.31-4.93,7.34-4.93,12.08,0,1.22.15,2.42.43,3.59.28,1.18.7,2.33,1.26,3.46l-4.22,4.22ZM22.57,62l-11.25-11.27,11.25-11.28,3.94,3.95-4.5,4.51h.49c4.69,0,8.67-1.66,11.95-4.97,3.28-3.31,4.93-7.34,4.93-12.08,0-1.22-.15-2.42-.43-3.59-.28-1.18-.7-2.33-1.26-3.46l4.22-4.22c1.03,1.78,1.8,3.61,2.32,5.49.51,1.88.77,3.81.77,5.78,0,6.29-2.18,11.65-6.54,16.06-4.36,4.42-9.68,6.63-15.96,6.63h-.49l4.5,4.5-3.94,3.95Z"/>
  </g>
</svg>