<?xml version="1.0" encoding="UTF-8"?>
<svg id="Layer_2" data-name="Layer 2" xmlns="http://www.w3.org/2000/svg" viewBox="0 0 636 126.12">
  <defs>
    <style>
      .cls-1 {
        stroke-width: .8px;
      }

      .cls-1, .cls-2 {
        fill: #bfff1b;
        stroke: #bfff1b;
      }

      .cls-2 {
        stroke-width: .64px;
      }
    </style>
  </defs>
  <g id="Layer_1-2" data-name="Layer 1">
    <g>
      <path class="cls-2" d="M84.48,46.48l-46.16,46.16H.77s44.9-45.94,44.9-45.94l.22-.22-.22-.22L.76.32h37.56s46.16,46.16,46.16,46.16Z"/>
      <path class="cls-1" d="M635.44,67.34l-58.38,58.37h-47.48l56.78-58.09.27-.29-.27-.28-56.79-58.09h47.5l58.37,58.38Z"/>
      <path class="cls-1" d="M571.52,67.34l-58.38,58.37h-47.49l56.79-58.09.27-.29-.27-.28-56.79-58.09h47.49l58.38,58.38Z"/>
      <path class="cls-1" d="M507.6,67.34l-58.37,58.37h-47.49l56.78-58.09.28-.29-.28-.28-56.79-58.09h47.5l58.37,58.38Z"/>
      <path class="cls-1" d="M443.69,67.34l-58.37,58.37h-47.49l56.78-58.09.28-.29-.28-.28-56.79-58.09h47.5l58.37,58.38Z"/>
    </g>
  </g>
</svg>