<?xml version="1.0" encoding="UTF-8"?>
<svg id="Layer_2" data-name="Layer 2" xmlns="http://www.w3.org/2000/svg" viewBox="0 0 56 56">
  <defs>
    <style>
      .cls-1 {
        fill: #bfff1b;
      }
    </style>
  </defs>
  <g id="Layer_1-2" data-name="Layer 1">
    <path class="cls-1" d="M28,56c-3.87,0-7.51-.73-10.92-2.2-3.41-1.47-6.37-3.47-8.89-5.99-2.52-2.52-4.51-5.48-5.98-8.89-1.47-3.41-2.21-7.05-2.21-10.92s.74-7.51,2.21-10.92c1.47-3.41,3.46-6.37,5.98-8.89,2.52-2.52,5.48-4.51,8.89-5.98,3.41-1.47,7.05-2.21,10.92-2.21s7.51.74,10.92,2.21c3.41,1.47,6.37,3.46,8.89,5.98,2.52,2.52,4.52,5.48,5.99,8.89,1.47,3.41,2.2,7.05,2.2,10.92s-.73,7.51-2.2,10.92c-1.47,3.41-3.47,6.37-5.99,8.89-2.52,2.52-5.48,4.52-8.89,5.99-3.41,1.47-7.05,2.2-10.92,2.2ZM12.11,43.89l15.89-15.89V5.6c-6.25,0-11.55,2.17-15.89,6.51-4.34,4.34-6.51,9.64-6.51,15.89,0,2.99.56,5.86,1.68,8.61,1.12,2.75,2.73,5.18,4.83,7.28Z"/>
  </g>
</svg>