<?xml version="1.0" encoding="UTF-8"?>
<svg id="Layer_2" data-name="Layer 2" xmlns="http://www.w3.org/2000/svg" viewBox="0 0 62 62">
  <defs>
    <style>
      .cls-1 {
        fill: #bfff1b;
      }
    </style>
  </defs>
  <g id="Layer_1-2" data-name="Layer 1">
    <path class="cls-1" d="M31,62c-4.29,0-8.32-.81-12.09-2.44-3.77-1.63-7.05-3.84-9.84-6.63-2.79-2.79-5-6.07-6.63-9.84-1.63-3.77-2.44-7.8-2.44-12.09s.81-8.32,2.44-12.09c1.63-3.77,3.84-7.05,6.63-9.84,2.79-2.79,6.07-5,9.84-6.63,3.77-1.63,7.8-2.44,12.09-2.44s8.32.81,12.09,2.44c3.77,1.63,7.05,3.84,9.84,6.63,2.79,2.79,5,6.07,6.63,9.84,1.63,3.77,2.44,7.8,2.44,12.09s-.81,8.32-2.44,12.09c-1.63,3.77-3.84,7.05-6.63,9.84-2.79,2.79-6.07,5-9.84,6.63-3.77,1.63-7.8,2.44-12.09,2.44ZM27.9,55.49v-9.3c-3.1-.62-5.74-2.02-7.9-4.19-2.17-2.16-3.57-4.8-4.19-7.9H6.51c.62,5.63,2.93,10.41,6.94,14.34,4,3.92,8.82,6.27,14.45,7.05h0ZM34.1,55.49c5.64-.62,10.45-2.93,14.46-6.94s6.31-8.82,6.93-14.45h-9.29c-.63,3.1-2.02,5.73-4.19,7.9s-4.8,3.57-7.9,4.19v9.3h-.01ZM6.51,27.9h8.99l9.3-9.3h12.4l9.3,9.3h8.99c-.78-6.25-3.49-11.43-8.14-15.54-4.65-4.11-10.1-6.16-16.35-6.16s-11.7,2.05-16.35,6.16c-4.65,4.11-7.36,9.29-8.14,15.54Z"/>
  </g>
</svg>